<?xml version="1.0" encoding="utf-8"?><svg xmlns="http://www.w3.org/2000/svg" xmlns:xlink="http://www.w3.org/1999/xlink"><symbol viewBox="0 0 320 512" id="close" xmlns="http://www.w3.org/2000/svg"><path d="M207.6 256l107.72-107.72c6.23-6.23 6.23-16.34 0-22.58l-25.03-25.03c-6.23-6.23-16.34-6.23-22.58 0L160 208.4 52.28 100.68c-6.23-6.23-16.34-6.23-22.58 0L4.68 125.7c-6.23 6.23-6.23 16.34 0 22.58L112.4 256 4.68 363.72c-6.23 6.23-6.23 16.34 0 22.58l25.03 25.03c6.23 6.23 16.34 6.23 22.58 0L160 303.6l107.72 107.72c6.23 6.23 16.34 6.23 22.58 0l25.03-25.03c6.23-6.23 6.23-16.34 0-22.58L207.6 256z"/></symbol><symbol viewBox="0 0 320 512" id="facebook" xmlns="http://www.w3.org/2000/svg"><path d="M279.1 288l14.2-92.7h-88.9v-60.1c0-25.3 12.4-50.1 52.2-50.1H297V6.3S260.3 0 225.3 0c-73.2 0-121.1 44.4-121.1 124.7v70.6H22.9V288h81.4v224h100.2V288h74.6z"/></symbol><symbol viewBox="0 0 448 512" id="instagram" xmlns="http://www.w3.org/2000/svg"><path d="M224.1 141c-63.6 0-114.9 51.3-114.9 114.9s51.3 114.9 114.9 114.9S339 319.5 339 255.9 287.7 141 224.1 141zm0 189.6c-41.1 0-74.7-33.5-74.7-74.7s33.5-74.7 74.7-74.7 74.7 33.5 74.7 74.7-33.6 74.7-74.7 74.7zm146.4-194.3c0 14.9-12 26.8-26.8 26.8-14.9 0-26.8-12-26.8-26.8s12-26.8 26.8-26.8 26.8 12 26.8 26.8zm76.1 27.2c-1.7-35.9-9.9-67.7-36.2-93.9-26.2-26.2-58-34.4-93.9-36.2-37-2.1-147.9-2.1-184.9 0-35.8 1.7-67.6 9.9-93.9 36.1s-34.4 58-36.2 93.9c-2.1 37-2.1 147.9 0 184.9 1.7 35.9 9.9 67.7 36.2 93.9s58 34.4 93.9 36.2c37 2.1 147.9 2.1 184.9 0 35.9-1.7 67.7-9.9 93.9-36.2 26.2-26.2 34.4-58 36.2-93.9 2.1-37 2.1-147.8 0-184.8zM398.8 388c-7.8 19.6-22.9 34.7-42.6 42.6-29.5 11.7-99.5 9-132.1 9s-102.7 2.6-132.1-9c-19.6-7.8-34.7-22.9-42.6-42.6-11.7-29.5-9-99.5-9-132.1s-2.6-102.7 9-132.1c7.8-19.6 22.9-34.7 42.6-42.6 29.5-11.7 99.5-9 132.1-9s102.7-2.6 132.1 9c19.6 7.8 34.7 22.9 42.6 42.6 11.7 29.5 9 99.5 9 132.1s2.7 102.7-9 132.1z"/></symbol><symbol viewBox="0 0 448 256" id="next-arrow" xmlns="http://www.w3.org/2000/svg"><path d="M311 3.5l-7.1 7.1c-4.7 4.7-4.7 12.3 0 17l83.9 83.4H12c-6.6 0-12 5.4-12 12v10c0 6.6 5.4 12 12 12h375.9L304 228.4c-4.7 4.7-4.7 12.3 0 17l7.1 7.1c4.7 4.7 12.3 4.7 17 0l116.5-116c4.7-4.7 4.7-12.3 0-17L328 3.5c-4.7-4.7-12.3-4.7-17 0z"/></symbol><symbol viewBox="0 0 448 256" id="prev-arrow" xmlns="http://www.w3.org/2000/svg"><path d="M137 252.5l7.1-7.1c4.7-4.7 4.7-12.3 0-17l-84-83.4H436c6.6 0 12-5.4 12-12v-10c0-6.6-5.4-12-12-12H60.1L144 27.6c4.7-4.7 4.7-12.3 0-17l-7-7.1c-4.7-4.7-12.3-4.7-17 0L3.5 119.5c-4.7 4.7-4.7 12.3 0 17l116.5 116c4.7 4.7 12.3 4.7 17 0z"/></symbol><symbol viewBox="0 0 512 512" id="search" xmlns="http://www.w3.org/2000/svg"><path d="M508.5 481.6l-129-129c-2.3-2.3-5.3-3.5-8.5-3.5h-10.3C395 312 416 262.5 416 208 416 93.1 322.9 0 208 0S0 93.1 0 208s93.1 208 208 208c54.5 0 104-21 141.1-55.2V371c0 3.2 1.3 6.2 3.5 8.5l129 129c4.7 4.7 12.3 4.7 17 0l9.9-9.9c4.7-4.7 4.7-12.3 0-17zM208 384c-97.3 0-176-78.7-176-176S110.7 32 208 32s176 78.7 176 176-78.7 176-176 176z"/></symbol><symbol viewBox="0 0 512 512" id="twitter" xmlns="http://www.w3.org/2000/svg"><path d="M459.37 151.716c.325 4.548.325 9.097.325 13.645 0 138.72-105.583 298.558-298.558 298.558-59.452 0-114.68-17.219-161.137-47.106 8.447.974 16.568 1.299 25.34 1.299 49.055 0 94.213-16.568 130.274-44.832-46.132-.975-84.792-31.188-98.112-72.772 6.498.974 12.995 1.624 19.818 1.624 9.421 0 18.843-1.3 27.614-3.573-48.081-9.747-84.143-51.98-84.143-102.985v-1.299c13.969 7.797 30.214 12.67 47.431 13.319-28.264-18.843-46.781-51.005-46.781-87.391 0-19.492 5.197-37.36 14.294-52.954 51.655 63.675 129.3 105.258 216.365 109.807-1.624-7.797-2.599-15.918-2.599-24.04 0-57.828 46.782-104.934 104.934-104.934 30.213 0 57.502 12.67 76.67 33.137 23.715-4.548 46.456-13.32 66.599-25.34-7.798 24.366-24.366 44.833-46.132 57.827 21.117-2.273 41.584-8.122 60.426-16.243-14.292 20.791-32.161 39.308-52.628 54.253z"/></symbol><symbol viewBox="0 0 512 464" id="w-1" xmlns="http://www.w3.org/2000/svg"><path class="hst0" d="M464 32H328c-4.4 0-8 3.6-8 8v200c0 4.4 3.6 8 8 8h136c4.4 0 8-3.6 8-8V40c0-4.4-3.6-8-8-8zm-8 200H336V88h120v144zm0-160H336V48h120v24z"/><path class="hst0" d="M352 104h16v16h-16zm32 0h56v16h-56zm-32 32h16v16h-16zm32 0h56v16h-56zm-32 32h16v16h-16zm32 0h56v16h-56zm-32 32h16v16h-16zm32 0h56v16h-56zm-88-88h-64V80h8c4.4 0 8-3.6 8-8V40c0-4.4-3.6-8-8-8h-32c-4.4 0-8 3.6-8 8v8H88v-8c0-4.4-3.6-8-8-8H48c-4.4 0-8 3.6-8 8v32c0 4.4 3.6 8 8 8h8v120h-8c-4.4 0-8 3.6-8 8v32c0 4.4 3.6 8 8 8h32c4.4 0 8-3.6 8-8v-8h112v8c0 4.4 3.6 8 8 8h32c4.4 0 8-3.6 8-8v-32c0-4.4-3.6-8-8-8h-8v-24h64c4.4 0 8-3.6 8-8v-48c0-4.4-3.6-8-8-8zm-80-64h16v16h-16V48zM56 48h16v16H56V48zm16 184H56v-16h16v16zm128-24v8H88v-8c0-4.4-3.6-8-8-8h-8V80h8c4.4 0 8-3.6 8-8v-8h112v8c0 4.4 3.6 8 8 8h8v32h-96c-4.4 0-8 3.6-8 8v48c0 4.4 3.6 8 8 8h96v24h-8c-4.4 0-8 3.6-8 8zm32 24h-16v-16h16v16zm56-72H128v-32h8v8h16v-8h16v16h16v-16h16v8h16v-8h16v16h16v-16h16v8h16v-8h8v32z"/><path class="hst0" d="M496 0H16C7.2 0 0 7.2 0 16v312c0 8.8 7.2 16 16 16h190.4l-13.1 72H168c-2.1 0-4.2.8-5.7 2.3l-16 16c-1.5 1.5-2.3 3.5-2.3 5.7v16c0 4.4 3.6 8 8 8h208c4.4 0 8-3.6 8-8v-16c0-2.1-.8-4.2-2.3-5.7l-16-16c-1.5-1.5-3.5-2.3-5.7-2.3h-25.3l-13.1-72H496c8.8 0 16-7.2 16-16V16c0-8.8-7.2-16-16-16zM312 432h28.7l11.3 11.3v4.7H160v-4.7l11.3-11.3H312zm-40-40v-16h-8v-32h25.3l13.1 72h-92.8l13.1-72H248v32h-8v16h32zm224-64H16v-48h480v48zm0-64H16V16h480v248z"/><path class="hst0" d="M232 296h48v16h-48z"/></symbol><symbol viewBox="0 0 512 512" id="w-2" xmlns="http://www.w3.org/2000/svg"><path class="ist0" d="M311 292.1l-40-72c-1.4-2.5-4.1-4.1-7-4.1h-16c-2.9 0-5.6 1.6-7 4.1l-40 72c-1.1 2-1.3 4.3-.6 6.4l20.5 61.5H216c-4.4 0-8 3.6-8 8v32c0 4.4 3.6 8 8 8v96c0 4.4 3.6 8 8 8h64c4.4 0 8-3.6 8-8v-96c4.4 0 8-3.6 8-8v-32c0-4.4-3.6-8-8-8h-4.9l20.5-61.5c.7-2.1.5-4.4-.6-6.4zM280 496h-48v-88h48v88zm8-104h-64v-16h64v16zm-13.8-32H264v-56h8v-16h-32v16h8v56h-10.2l-21.1-63.2 36-64.8h6.6l36 64.8-21.1 63.2z"/><path class="ist0" d="M415.2 281.2C410 224.7 374.7 176 325.4 152H368v8c0 4.4 3.6 8 8 8h32c4.4 0 8-3.6 8-8v-32c0-4.4-3.6-8-8-8h-32c-4.4 0-8 3.6-8 8v8h-89.5c-3.3-9.3-12.1-16-22.5-16s-19.2 6.7-22.5 16H144v-8c0-4.4-3.6-8-8-8h-32c-4.4 0-8 3.6-8 8v32c0 4.4 3.6 8 8 8h32c4.4 0 8-3.6 8-8v-8h42.4c-49.3 24-84.4 72.6-89.6 129.2C87.1 284.3 80 293.3 80 304c0 13.2 10.8 24 24 24s24-10.8 24-24c0-10.1-6.3-18.7-15.1-22.3 6.5-65 56.9-118.1 121.3-127.9 3.8 8.4 12.1 14.2 21.9 14.2s18.1-5.8 21.9-14.2c64.3 9.9 114.8 63.1 121.3 127.9-8.9 3.5-15.1 12.2-15.1 22.3 0 13.2 10.8 24 24 24s24-10.8 24-24c-.2-10.7-7.3-19.7-17-22.8zM384 136h16v16h-16v-16zm-256 16h-16v-16h16v16zm-24 160c-4.4 0-8-3.6-8-8s3.6-8 8-8 8 3.6 8 8-3.6 8-8 8zm152-160c-4.4 0-8-3.6-8-8s3.6-8 8-8 8 3.6 8 8-3.6 8-8 8zm152 160c-4.4 0-8-3.6-8-8s3.6-8 8-8 8 3.6 8 8-3.6 8-8 8z"/><path class="ist0" d="M504 0H8C3.6 0 0 3.6 0 8v432c0 4.4 3.6 8 8 8h192v-16H16V80h480v352H312v16h192c4.4 0 8-3.6 8-8V8c0-4.4-3.6-8-8-8zm-8 64H16V16h480v48z"/><path class="ist0" d="M48 32h16v16H48zm32 0h16v16H80zm32 0h16v16h-16zm304 0h48v16h-48zM248 432h16v32h-16z"/></symbol><symbol viewBox="0 0 512 512" id="w-3" xmlns="http://www.w3.org/2000/svg"><path class="jst0" d="M474.5 135.2L257.9 1.2c-2.6-1.6-6-1.6-8.5.1l-214.1 138c-2.3 1.5-3.7 4.1-3.7 6.8s1.5 5.3 3.8 6.7l78.4 48.5-23 14.8 8.7 13.4 29.4-18.9L252 286.8c1.3.8 2.8 1.2 4.3 1.2s3-.4 4.3-1.3l121.7-78.4 29.7 18.4 8.4-13.6-23.2-14.4 77.5-50c2.3-1.5 3.7-4.1 3.7-6.8-.1-2.7-1.6-5.3-3.9-6.7zM256.1 270.5L54.6 145.9 253.8 17.5l201.5 124.7-199.2 128.3z"/><path class="jst0" d="M275.4 217.8l-19.7 12.7-20.4-12.6-8.4 13.6 24.7 15.3c1.3.8 2.8 1.2 4.3 1.2s3-.4 4.3-1.3l23.9-15.4-8.7-13.5zM258.3 41.2c-2.6-1.6-6-1.6-8.5.1l-25.2 16.2 8.7 13.4 20.9-13.5 21.2 13.1 8.4-13.6-25.5-15.7zM55.6 257.9l23-14.8-8.7-13.4-33.6 21.7c-2.3 1.5-3.7 4.1-3.7 6.8s1.5 5.3 3.8 6.7l34 21 8.4-13.6-23.2-14.4zM150.47 335.298l8.417-13.607 57.149 35.354-8.417 13.607zM286.5 363.6l-29.4 18.9-29.7-18.4-8.4 13.6 34 21c1.3.8 2.8 1.2 4.3 1.2s3-.4 4.3-1.3l33.6-21.7-8.7-13.3zM297.815 356.264l56.482-36.41 8.669 13.448-56.482 36.41z"/><path class="jst0" d="M475.5 247.2l-34-21-8.4 13.6 23.2 14.4-23 14.8 8.7 13.4 33.6-21.7c2.3-1.5 3.7-4.1 3.7-6.8s-1.4-5.3-3.8-6.7zm1.1 112l-78.4-48.5 32.6-21-8.7-13.4-56.5 36.4 8.7 13.4 9-5.8 74.1 45.9-199.2 128.3L56.7 369.9l73.3-47.2 9.1 5.6 8.4-13.6-57.1-35.3L82 293l33 20.4-77.5 50c-2.3 1.5-3.7 4.1-3.7 6.8s1.5 5.3 3.8 6.7l216.6 134c1.3.8 2.8 1.2 4.3 1.2s3-.4 4.3-1.3l214.1-138c2.3-1.5 3.7-4.1 3.7-6.8s-1.7-5.4-4-6.8z"/></symbol><symbol viewBox="0 0 512 480" id="w-4" xmlns="http://www.w3.org/2000/svg"><path class="kst0" d="M496 0H112c-8.8 0-16 7.2-16 16v176c0 8.8 7.2 16 16 16h88v-16h-88V16h384v176h-72v16h72c8.8 0 16-7.2 16-16V16c0-8.8-7.2-16-16-16zM96 320v-16H80v24c0 4.4 3.6 8 8 8h24v-16H96zm80-88h-24v16h16v16h16v-24c0-4.4-3.6-8-8-8zM106.333 298.344l40.021-40.023 11.314 11.313-40.021 40.023z"/><path class="kst0" d="M325.7 290.3l-16-16-11.3 11.3 10.3 10.3-10.3 10.3 11.3 11.3 16-16c3.1-3 3.1-8 0-11.2zm0-196.6l-11.3-11.3-16 16c-3.1 3.1-3.1 8.2 0 11.3l16 16 11.3-11.3-10.4-10.4 10.4-10.3zm-98.8 128.9c-1.9-7.3-2.9-14.9-2.9-22.6 0-7 .8-14 2.5-20.8 7.5-31.1 31.4-55.7 62.3-64.1l-4.2-15.4c-36.5 10-64.8 39-73.7 75.8-1.9 8-2.9 16.3-2.9 24.5 0 9.1 1.2 18 3.5 26.7 9.5 35.8 37.5 64 73.2 73.7l4.2-15.4c-30.2-8.3-54-32.2-62-62.4zm186.4-46.3c-8.7-37.5-37.3-66.9-74.5-76.8l-4.1 15.5c31.5 8.4 55.6 33.3 63 65 1.5 6.5 2.3 13.3 2.3 20.1 0 7.2-.9 14.4-2.6 21.4-7.8 31.3-32.1 55.8-63.3 63.8l4 15.5c36.9-9.5 65.6-38.5 74.8-75.5 2.1-8.2 3.1-16.7 3.1-25.2 0-8.1-.9-16.1-2.7-23.8z"/><path class="kst0" d="M345.9 162.9l-34.4 41.3-17.8-17.8-11.3 11.3 24 24c1.5 1.5 3.5 2.3 5.7 2.3h.4c2.2-.1 4.3-1.1 5.8-2.9l40-48-12.4-10.2zM456 80c-13.2 0-24 10.8-24 24s10.8 24 24 24 24-10.8 24-24-10.8-24-24-24zm0 32c-4.4 0-8-3.6-8-8s3.6-8 8-8 8 3.6 8 8-3.6 8-8 8zm-48-80H136c-4.4 0-8 3.6-8 8v128c0 4.4 3.6 8 8 8h64v-16h-56V48h256v80h16V40c0-4.4-3.6-8-8-8z"/><path class="kst0" d="M504 424h-8V224h-16v200H336c-1 0-2 .2-2.9.5l-19.5 7.5h-116l-20.9-7.5c-.9-.3-1.8-.5-2.7-.5H32V160h48v-16H24c-4.4 0-8 3.6-8 8v272H8c-4.4 0-8 3.6-8 8v26.5c0 1.8.6 3.6 1.8 5L12.5 477c1.5 1.9 3.8 3 6.2 3h474.4c2 0 4-.8 5.4-2.1l10.8-10c1.6-1.5 2.6-3.6 2.6-5.9v-30c.1-4.4-3.5-8-7.9-8zm-8 34.5l-5.9 5.5H22.6l-6.6-8.3V440h32v8h16v-8h108.6l20.9 7.5c.9.3 1.8.5 2.7.5h118.9c1 0 2-.2 2.9-.5l19.5-7.5H416v8h16v-8h16v8h16v-8h32v18.5z"/><path class="kst0" d="M240 392h32v16h-32zm-176 0V192h16v-16H56c-4.4 0-8 3.6-8 8v216c0 4.4 3.6 8 8 8h168v-16H64zm384-168v168H288v16h168c4.4 0 8-3.6 8-8V224h-16z"/></symbol><symbol viewBox="0 0 512 448" id="w-5" xmlns="http://www.w3.org/2000/svg"><path class="lst0" d="M256 112c-61.8 0-112 50.2-112 112 0 44.1 25.5 83.5 65.3 101.8l6.7 67c.4 4.1 3.8 7.2 8 7.2h64c4.1 0 7.6-3.1 8-7.2l6.7-67C342.5 307.5 368 268.1 368 224c0-61.8-50.2-112-112-112zm36.2 200.9c-2.8 1.1-4.6 3.7-4.9 6.6l-2.5 24.5H248v16h35.2l-2.4 24h-49.5l-5.6-56H272v-16h-54.1c-35.2-15.3-57.9-49.5-57.9-88 0-52.9 43.1-96 96-96s96 43.1 96 96c0 39.2-23.5 74.1-59.8 88.9z"/><path class="lst0" d="M272 168c-5.7 0-11.1 1.2-16 3.4-4.9-2.2-10.3-3.4-16-3.4-22.1 0-40 17.9-40 40h16c0-13.2 10.8-24 24-24h.2c-5.1 6.7-8.2 15-8.2 24h16c0-7.1 3.1-13.4 8-17.8 4.9 4.4 8 10.7 8 17.8h16c0-9-3.1-17.3-8.2-24h.2c13.2 0 24 10.8 24 24h16c0-22.1-17.9-40-40-40zm24 64v12.7L284.7 256H264v16h24c2.1 0 4.2-.8 5.7-2.3l16-16c1.5-1.5 2.3-3.5 2.3-5.7v-16h-16zm-68.7 24L216 244.7V232h-16v16c0 2.1.8 4.2 2.3 5.7l16 16c1.5 1.5 3.5 2.3 5.7 2.3h24v-16h-20.7z"/><path class="lst0" d="M504 0H8C3.6 0 0 3.6 0 8v432c0 4.4 3.6 8 8 8h496c4.4 0 8-3.6 8-8V8c0-4.4-3.6-8-8-8zm-8 432H16V80h480v352zm0-368H16V16h480v48z"/><path class="lst0" d="M48 32h16v16H48zm32 0h16v16H80zm32 0h16v16h-16zm304 0h48v16h-48z"/></symbol><symbol viewBox="0 0 512 386" id="w-6" xmlns="http://www.w3.org/2000/svg"><path class="mst0" d="M504 2H8c-4.4 0-8 3.6-8 8v368c0 4.4 3.6 8 8 8h496c4.4 0 8-3.6 8-8V10c0-4.4-3.6-8-8-8zm-8 368H16V18h480v352z"/><path class="mst0" d="M165.2 175.6c-18.2 0-33.1 14.8-33.1 33.1v7.1c0 7.8 2.7 14.9 7.2 20.6l-17.2 5.7c-9.9 3.3-16.5 12.4-16.5 22.8v58.5c0 3.3 2.6 5.9 5.9 5.9h46c3.3 0 5.9-2.6 5.9-5.9s-2.6-5.9-5.9-5.9h-40.1v-52.6c0-5.3 3.4-10 8.4-11.6l24.2-8c4.5 2.3 9.7 3.7 15.1 3.7 18.2 0 33.1-14.8 33.1-33.1v-7.1c.1-18.4-14.7-33.2-33-33.2zm21.3 39h-15.4c-3.3 0-5.9 2.6-5.9 5.9s2.6 5.9 5.9 5.9h12.6c-3.7 6.4-10.6 10.7-18.5 10.7-4 0-7.7-1.1-10.8-3-.3-.3-.7-.5-1-.6-5.7-3.8-9.4-10.3-9.4-17.7v-7.1c0-11.7 9.6-21.3 21.3-21.3s21.3 9.6 21.3 21.3l-.1 5.9z"/><path class="mst0" d="M315.7 245.5l-28.3-9.4c8-7.9 12.9-18.9 12.9-30.9v-19.3c0-24.1-19.6-43.6-43.6-43.6s-43.6 19.6-43.6 43.6v19.3c0 12.1 4.9 23 12.9 30.9l-28.3 9.4c-12.7 4.2-21.3 16.1-21.3 29.5v48.4c0 3.3 2.6 5.9 5.9 5.9h148.8c3.3 0 5.9-2.6 5.9-5.9V275c0-13.4-8.5-25.3-21.3-29.5zm-59-91.4c12.3 0 23.1 7.1 28.3 17.4l-8.2 5.6c-4.3 3-9.4 4.5-14.6 4.5h-37.1c2.2-15.5 15.5-27.5 31.6-27.5zm-31.8 51.1v-11.8h37.4c7.6 0 15-2.3 21.3-6.6l4.8-3.3c.1.8.1 1.6.1 2.5v19.3c0 2.7-.3 5.4-1 7.9h-11.4c-3.3 0-5.9 2.6-5.9 5.9s2.6 5.9 5.9 5.9h5.6c-5.8 7.4-14.9 12.1-25 12.1-17.5-.1-31.8-14.4-31.8-31.9zm100.3 112.3h-15.4v-20.6c0-3.3-2.6-5.9-5.9-5.9s-5.9 2.6-5.9 5.9v20.6h-82.7v-20.6c0-3.3-2.6-5.9-5.9-5.9s-5.9 2.6-5.9 5.9v20.6h-15.3V275c0-8.3 5.3-15.7 13.2-18.3l36.6-12.1c5.7 2.7 12 4.2 18.7 4.2s13-1.5 18.7-4.2l36.6 12.1c7.9 2.6 13.2 10 13.2 18.3v42.5zm34.5 1.7c-1.1-1.1-2.6-1.7-4.2-1.7s-3.1.6-4.2 1.7-1.7 2.6-1.7 4.2.6 3.1 1.7 4.2 2.6 1.7 4.2 1.7 3.1-.6 4.2-1.7 1.7-2.6 1.7-4.2-.6-3.1-1.7-4.2z"/><path class="mst0" d="M391.2 242l-17.2-5.7c4.5-5.7 7.2-12.8 7.2-20.6v-7.1c0-18.3-14.8-33.1-33.1-33.1-18.2 0-33.1 14.8-33.1 33.1v7.1c0 18.3 14.8 33.1 33.1 33.1 5.5 0 10.6-1.3 15.1-3.7l24.2 8c5 1.7 8.4 6.3 8.4 11.6v52.6h-18.3c-3.3 0-5.9 2.6-5.9 5.9s2.6 5.9 5.9 5.9h24.2c3.3 0 5.9-2.6 5.9-5.9v-58.5c.1-10.2-6.6-19.4-16.4-22.7zm-21.8-27.4h-13.9c-3.3 0-5.9 2.6-5.9 5.9s2.6 5.9 5.9 5.9h11c-1.6 2.9-3.9 5.3-6.6 7.1-.4.2-.7.4-1 .6-3.2 1.9-6.9 3-10.8 3-11.7 0-21.3-9.6-21.3-21.3v-7.1c0-11.7 9.6-21.3 21.3-21.3 11.7 0 21.3 9.6 21.3 21.3v5.9zM212.6 109.9h-17.9c.8-.7 1.6-1.4 2.4-2.2 11.2-10.7 16.6-19.9 16.6-27.8 0-12.4-8.3-20.7-20.7-20.7-11.4 0-20.7 9.3-20.7 20.7 0 3.3 2.6 5.9 5.9 5.9 3.3 0 5.9-2.6 5.9-5.9 0-4.9 4-8.9 8.9-8.9 8.9 0 8.9 6.7 8.9 8.9 0 8.2-15.8 23.2-27.1 31.1-2.1 1.5-3 4.2-2.2 6.6.8 2.4 3.1 4.1 5.6 4.1h34.4c3.3 0 5.9-2.6 5.9-5.9 0-3.3-2.6-5.9-5.9-5.9z"/><path class="mst0" d="M255.9 91.3h-4v-1.7c0-3.3-2.6-5.9-5.9-5.9-3.3 0-5.9 2.6-5.9 5.9v1.7H232L245.3 68c1.6-2.8.6-6.4-2.2-8s-6.4-.6-8 2.2l-18.3 32.1c-1 1.8-1 4.1 0 5.9 1.1 1.8 3 2.9 5.1 2.9h18.3v12.7c0 3.3 2.6 5.9 5.9 5.9s5.9-2.6 5.9-5.9v-12.7h4c3.3 0 5.9-2.6 5.9-5.9-.1-3.3-2.8-5.9-6-5.9zM293 59.5c-3-1.2-6.5.3-7.6 3.4l-19.5 50.7c-1.2 3 .3 6.5 3.4 7.6.7.3 1.4.4 2.1.4 2.4 0 4.6-1.4 5.5-3.8l19.5-50.7c1.1-3-.4-6.4-3.4-7.6zm46.9 2.2c-1.1-1.6-2.9-2.5-4.8-2.5h-24.8c-3.3 0-5.9 2.6-5.9 5.9 0 3.3 2.6 5.9 5.9 5.9h16.3l-15.9 42.8c-1.1 3.1.4 6.4 3.5 7.6.7.3 1.4.4 2.1.4 2.4 0 4.6-1.5 5.5-3.8l18.9-50.7c.5-2 .3-4.1-.8-5.6zm-79.1 153.2c-1.1-1.1-2.6-1.7-4.2-1.7s-3.1.6-4.2 1.7-1.7 2.6-1.7 4.2.6 3.1 1.7 4.2 2.6 1.7 4.2 1.7 3.1-.6 4.2-1.7 1.7-2.6 1.7-4.2c.1-1.5-.6-3.1-1.7-4.2z"/></symbol><symbol viewBox="0 0 576 512" id="youtube" xmlns="http://www.w3.org/2000/svg"><path d="M549.655 124.083c-6.281-23.65-24.787-42.276-48.284-48.597C458.781 64 288 64 288 64S117.22 64 74.629 75.486c-23.497 6.322-42.003 24.947-48.284 48.597-11.412 42.867-11.412 132.305-11.412 132.305s0 89.438 11.412 132.305c6.281 23.65 24.787 41.5 48.284 47.821C117.22 448 288 448 288 448s170.78 0 213.371-11.486c23.497-6.321 42.003-24.171 48.284-47.821 11.412-42.867 11.412-132.305 11.412-132.305s0-89.438-11.412-132.305zm-317.51 213.508V175.185l142.739 81.205-142.739 81.201z"/></symbol><symbol viewBox="0 0 448 448" id="zoom" xmlns="http://www.w3.org/2000/svg"><path d="M0 148V24C0 10.7 10.7 0 24 0h124c6.6 0 12 5.4 12 12v8c0 6.6-5.4 12-12 12H32v116c0 6.6-5.4 12-12 12h-8c-6.6 0-12-5.4-12-12zM300 0h124c13.3 0 24 10.7 24 24v124c0 6.6-5.4 12-12 12h-8c-6.6 0-12-5.4-12-12V32H300c-6.6 0-12-5.4-12-12v-8c0-6.6 5.4-12 12-12zm148 300v124c0 13.3-10.7 24-24 24H300c-6.6 0-12-5.4-12-12v-8c0-6.6 5.4-12 12-12h116V300c0-6.6 5.4-12 12-12h8c6.6 0 12 5.4 12 12zM148 448H24c-13.3 0-24-10.7-24-24V300c0-6.6 5.4-12 12-12h8c6.6 0 12 5.4 12 12v116h116c6.6 0 12 5.4 12 12v8c0 6.6-5.4 12-12 12z"/></symbol></svg>