<svg width="157" height="41" viewBox="0 0 157 41" fill="none" xmlns="http://www.w3.org/2000/svg">
<path d="M2.12 5.44653L3.32 5.84653C5.37659 6.56108 7.57274 6.78035 9.73 6.48653C11.9969 6.13474 14.3171 6.44735 16.41 7.38653C17.5195 7.85898 18.4933 8.60145 19.2425 9.54634C19.9918 10.4912 20.4928 11.6085 20.7 12.7965C20.9107 13.939 20.8892 15.1122 20.6366 16.2461C20.3841 17.3801 19.9057 18.4515 19.23 19.3965C19.29 19.6065 19.35 19.8165 19.4 20.0265C19.8062 21.7536 20.0075 23.5224 20 25.2965H18C17.906 23.8444 17.7088 22.4007 17.41 20.9765C16.0226 21.7257 14.4667 22.1078 12.89 22.0865C11.4195 22.0855 9.96418 21.7897 8.61 21.2165C1 17.9665 2 7.15653 2 6.70653L2.12 5.44653ZM9.39 19.3765C12 20.4865 15.12 20.2965 16.87 18.9265C16.5742 17.9376 16.1684 16.9849 15.66 16.0865C15.2648 15.4399 14.7986 14.8396 14.27 14.2965C13.7299 13.7477 13.1216 13.2705 12.46 12.8765C11.0929 12.0591 9.5768 11.522 8 11.2965V10.2965C9.81422 10.2337 11.6173 10.6039 13.26 11.3765C14.9396 12.1961 16.364 13.458 17.38 15.0265C17.7568 15.6256 18.091 16.2505 18.38 16.8965C18.8435 15.7109 18.9749 14.4213 18.76 13.1665C18.6192 12.2881 18.2571 11.4599 17.7078 10.7601C17.1584 10.0603 16.4399 9.51187 15.62 9.16653C14.4244 8.60769 13.1198 8.32081 11.8 8.32653C11.18 8.32653 10.57 8.38653 9.93 8.43653C7.92568 8.69514 5.89067 8.57643 3.93 8.08653C4 10.8465 4.5 17.2965 9.39 19.3765Z" fill="#17C548"/>
<g clip-path="url(#clip0_1_1546)">
<path d="M23.7447 28.2344C35.3888 30.9431 38.63 21.2556 39.8001 16.5657C39.8306 16.4379 39.8351 16.3052 39.8134 16.1755C39.7916 16.0458 39.7441 15.9218 39.6736 15.8109C39.6032 15.6999 39.5111 15.6042 39.403 15.5294C39.2949 15.4546 39.1728 15.4023 39.0441 15.3755C22.4272 11.8303 20.5611 19.8521 18.8747 27.1015L17.9684 30.9975" stroke="#17C548" stroke-width="2" stroke-linecap="round" stroke-linejoin="round"/>
<path d="M18.8747 27.1014C18.8747 27.1014 20.2342 21.2574 28.2527 22.0961" stroke="#17C548" stroke-width="2" stroke-linecap="round" stroke-linejoin="round"/>
</g>
<path d="M61.207 10.7C61.207 8.51333 60.047 7.42 57.727 7.42C55.407 7.42 54.247 8.51333 54.247 10.7V25.18C54.247 27.3933 55.407 28.5 57.727 28.5C60.047 28.5 61.207 27.3933 61.207 25.18V10.7ZM50.487 10.58C50.487 8.58 51.087 6.98 52.287 5.78C53.5136 4.58 55.3136 3.98 57.687 3.98C60.087 3.98 61.9003 4.59333 63.127 5.82C64.3537 7.02 64.967 8.60667 64.967 10.58V25.34C64.967 27.3133 64.3537 28.9 63.127 30.1C61.9003 31.3 60.1003 31.9 57.727 31.9C55.3536 31.9 53.5536 31.3 52.327 30.1C51.1003 28.9 50.487 27.3133 50.487 25.34V10.58ZM77.6798 8.38H78.5998V11.94H77.3998C76.1465 11.94 74.7731 12.4467 73.2798 13.46V31.5H69.5198V8.5H73.1198V10.18C73.1998 10.1267 73.3465 10.02 73.5598 9.86C73.7998 9.7 73.9465 9.60666 73.9998 9.58C74.0798 9.52667 74.2131 9.43333 74.3998 9.3C74.6131 9.16667 74.7598 9.08667 74.8398 9.06C74.9198 9.03333 75.0398 8.98 75.1998 8.9C75.3865 8.79333 75.5331 8.72667 75.6398 8.7C75.7465 8.67333 75.8798 8.63333 76.0398 8.58C76.2265 8.5 76.3998 8.46 76.5598 8.46C77.0398 8.40667 77.4131 8.38 77.6798 8.38ZM96.1176 9.98H94.7576C94.1443 9.98 93.6243 10.1 93.1976 10.34C93.9443 11.2733 94.3176 12.5133 94.3176 14.06V17.34C94.3176 19.2067 93.7443 20.66 92.5976 21.7C91.4776 22.74 89.7709 23.2733 87.4776 23.3C86.2243 23.3 85.5976 23.8867 85.5976 25.06C85.5976 25.62 85.7576 26.02 86.0776 26.26C86.4243 26.5 87.0243 26.62 87.8776 26.62H90.1976C93.9843 26.62 95.8776 28.2067 95.8776 31.38V32.06C95.8776 35.66 93.3309 37.46 88.2376 37.46H86.6776C83.7709 37.46 81.5709 36.9933 80.0776 36.06V32.54C81.8376 33.6867 84.0109 34.26 86.5976 34.26H87.8776C89.4776 34.26 90.6109 34.0733 91.2776 33.7C91.9443 33.3267 92.2776 32.7667 92.2776 32.02V31.66C92.2776 31.02 92.1043 30.5533 91.7576 30.26C91.4376 29.94 90.7976 29.78 89.8376 29.78H87.3976C83.9576 29.78 82.2376 28.62 82.2376 26.3V25.66C82.2376 24.1667 82.9443 23.26 84.3576 22.94C81.6643 22.1667 80.3176 20.3 80.3176 17.34V14.06C80.3176 12.1667 80.8909 10.7 82.0376 9.66C83.2109 8.62 84.8376 8.1 86.9176 8.1C88.9976 8.1 90.5976 8.42 91.7176 9.06C92.2776 7.35333 93.5443 6.5 95.5176 6.5H96.1176V9.98ZM90.5576 17.3V14.1C90.5576 13.1133 90.3043 12.3933 89.7976 11.94C89.2909 11.46 88.4643 11.22 87.3176 11.22C86.1709 11.22 85.3443 11.46 84.8376 11.94C84.3309 12.3933 84.0776 13.1133 84.0776 14.1V17.3C84.0776 18.2867 84.3309 19.02 84.8376 19.5C85.3443 19.9533 86.1709 20.18 87.3176 20.18C88.4643 20.18 89.2909 19.9533 89.7976 19.5C90.3043 19.02 90.5576 18.2867 90.5576 17.3ZM101.606 24.9V26.1C101.606 26.98 101.806 27.6333 102.206 28.06C102.633 28.4867 103.446 28.7 104.646 28.7C105.873 28.7 106.993 28.2867 108.006 27.46V20.78L104.206 21.82C103.166 22.1133 102.473 22.4867 102.126 22.94C101.78 23.3667 101.606 24.02 101.606 24.9ZM99.0064 9.06C100.526 8.55333 102.46 8.3 104.806 8.3C109.366 8.3 111.646 10.3667 111.646 14.5V31.5H108.046V29.86C106.873 31.0333 105.326 31.62 103.406 31.62C99.7264 31.62 97.8864 29.7667 97.8864 26.06V24.74C97.8864 23.2467 98.273 22.0467 99.0464 21.14C99.8197 20.2067 101.06 19.5 102.766 19.02L108.006 17.58V14.5C108.006 13.5133 107.74 12.8067 107.206 12.38C106.673 11.9267 105.54 11.7 103.806 11.7C102.1 11.7 100.5 11.9667 99.0064 12.5V9.06ZM119.995 9.54C121.701 8.79333 123.288 8.42 124.755 8.42C126.248 8.42 127.461 8.87333 128.395 9.78C129.355 10.66 129.835 11.94 129.835 13.62V31.5H125.995V14.26C125.995 12.6867 125.208 11.9 123.635 11.9C122.488 11.9 121.328 12.1933 120.155 12.78V31.5H116.395V8.5H119.995V9.54ZM138.678 4.3C138.678 5.76667 137.945 6.5 136.478 6.5C135.011 6.5 134.278 5.76667 134.278 4.3C134.278 2.80666 135.011 2.06 136.478 2.06C137.945 2.06 138.678 2.80666 138.678 4.3ZM134.598 8.78H138.358V31.5H134.598V8.78ZM142.909 14.38C142.909 10.3267 145.256 8.3 149.949 8.3C151.629 8.3 153.122 8.48666 154.429 8.86V12.34C153.096 11.9667 151.736 11.78 150.349 11.78C148.989 11.78 148.029 12.0067 147.469 12.46C146.936 12.9133 146.669 13.6333 146.669 14.62V25.42C146.669 26.4067 146.936 27.1267 147.469 27.58C148.029 28.0333 149.016 28.26 150.429 28.26C151.842 28.26 153.189 28.0467 154.469 27.62V31.14C152.922 31.5133 151.416 31.7 149.949 31.7C145.256 31.7 142.909 29.6733 142.909 25.62V14.38Z" fill="black"/>
<defs>
<clipPath id="clip0_1_1546">
<rect width="24" height="24" fill="white" transform="translate(20.0311 8.88989) rotate(13.0957)"/>
</clipPath>
</defs>
</svg>
