<?xml version="1.0" encoding="utf-8"?>
<!-- Generator: Adobe Illustrator 24.0.2, SVG Export Plug-In . SVG Version: 6.00 Build 0)  -->
<svg version="1.1" id="Capa_1" xmlns="http://www.w3.org/2000/svg" xmlns:xlink="http://www.w3.org/1999/xlink" x="0px" y="0px"
	 viewBox="0 0 294.9 317.9" style="enable-background:new 0 0 294.9 317.9;" xml:space="preserve">
<style type="text/css">
	.st0{fill:#141A1E;}
</style>
<g>
	<path class="st0" d="M147.5,317.9c-1,0-2.1-0.2-3.1-0.5c-33.3-10.7-61.7-31.2-84.4-60.9c-17.8-23.4-32.1-52.5-42.4-86.6
		C0.2,112.5,0,61.4,0,59.2c0-5.2,3.9-9.5,9-10c0.8-0.1,78.4-8,132.6-47.3c3.5-2.5,8.2-2.5,11.8,0c54.1,39.3,131.8,47.3,132.6,47.3
		c5.1,0.5,9,4.8,9,10c0,2.1-0.2,53.3-17.6,110.7c-10.3,34-24.6,63.2-42.4,86.6c-22.6,29.7-51,50.2-84.4,60.9
		C149.5,317.7,148.5,317.9,147.5,317.9z M20.3,68c0.8,16.8,4.1,55.4,16.6,96.6c21.4,70.2,58.6,114.9,110.6,132.7
		c52.1-17.9,89.3-62.7,110.7-133.2c12.5-41.1,15.7-79.4,16.5-96.1c-22.4-3.3-80.4-14.3-127.2-45.8C100.7,53.6,42.7,64.7,20.3,68z"/>
</g>
</svg>
