<?xml version="1.0" encoding="utf-8"?>
<!-- Generator: Adobe Illustrator 24.0.2, SVG Export Plug-In . SVG Version: 6.00 Build 0)  -->
<svg version="1.1" id="Слой_1" xmlns="http://www.w3.org/2000/svg" xmlns:xlink="http://www.w3.org/1999/xlink" x="0px" y="0px"
	 viewBox="0 0 1220.1 302" style="enable-background:new 0 0 1220.1 302;" xml:space="preserve">
<style type="text/css">
	.st0{fill-rule:evenodd;clip-rule:evenodd;fill:#94C93D;}
	.st1{fill:#94C93D;}
	.st2{fill:#FFFFFF;}
</style>
<path class="st0" d="M253.3,239.7L153.9,297c-11.6,6.7-24.7,6.7-36.3,0l-99.4-57.3C6.6,233,0,221.6,0,208.2V93.8
	C0,80.4,6.6,69,18.2,62.3L117.6,5c11.6-6.7,24.7-6.7,36.3,0l99.4,57.3c11.6,6.7,18.2,18.1,18.2,31.5v114.5
	C271.5,221.6,264.9,233,253.3,239.7z M36.4,161.6v41.8c0,1.3,0.7,2.6,1.8,3.2l54.1,31.8c1.2,0.7,2.7,0.7,3.9-0.2l27.5-19.2
	c1-0.7,1.6-1.8,1.5-3.1c-0.1-1.3-0.7-2.3-1.8-2.9l-47.6-26.8c-1.2-0.7-1.7-1.5-1.7-2.8v-21.8l-0.2-10.3l0.2-10.3v-21.8
	c0-1.3,0.5-2.4,1.7-3l47.6-26.8c1.1-0.6,1.8-1.7,1.8-2.9c0.1-1.3-0.5-2.4-1.5-3.1L96.1,64.1c-1.2-0.8-2.6-0.9-3.9-0.2L38.2,95.7
	c-1.1,0.7-1.8,1.5-1.8,2.9V141 M196.3,161v22.4c0,1.3-0.5,2.2-1.6,2.8l-47.6,26.8c-1.1,0.6-1.8,1.7-1.8,2.9
	c-0.1,1.3,0.5,2.4,1.5,3.1l27.5,19.2c1.2,0.8,2.6,0.9,3.9,0.2l54.1-31.8c1.1-0.7,1.7-1.9,1.7-3.2c0,0,0-104.8,0-104.8
	c0-1.2-0.6-2.2-1.7-2.9l-54.1-31.8c-1.2-0.7-2.7-0.7-3.9,0.2l-27.5,19.2c-1,0.7-1.6,1.8-1.5,3.1c0.1,1.3,0.7,2.3,1.8,2.9l47.6,26.8
	c1.2,0.7,1.6,2.3,1.6,3.6V141 M233.9,141v20.6"/>
<g>
	<path class="st1" d="M372.5,203.3c-8.2-4.8-14.6-11.5-19.1-20.2c-4.5-8.7-6.8-18.9-6.8-30.4c0-11.7,2.3-21.9,7-30.8
		c4.7-8.9,11.2-15.8,19.7-20.7c8.4-4.9,18.1-7.4,29-7.4c5.8,0,11.7,0.8,17.6,2.5c5.9,1.7,11.2,4,15.8,6.9c4.9,3.4,7.4,7.3,7.4,11.7
		c0,2.6-0.7,4.8-2.1,6.6c-1.4,1.8-3.1,2.6-5.3,2.6c-1.4,0-2.8-0.3-4.1-1c-1.4-0.7-3.1-1.7-5.3-3.1c-3.8-2.5-7.4-4.3-10.7-5.6
		c-3.3-1.3-7.2-2-11.8-2c-10.4,0-18.5,3.5-24.3,10.6c-5.8,7.1-8.6,16.9-8.6,29.4c0,12.6,2.8,22.3,8.5,29.1
		c5.7,6.8,13.7,10.2,24.2,10.2c4.6,0,8.7-0.7,12.2-2.1c3.5-1.4,7.1-3.2,10.8-5.5c1.7-1.1,3.4-2,5.1-2.8c1.7-0.8,3.2-1.1,4.6-1.1
		c2.1,0,3.9,0.9,5.3,2.6c1.4,1.8,2.1,3.9,2.1,6.6c0,2.1-0.6,4.1-1.7,5.9c-1.1,1.8-3.1,3.6-5.9,5.4c-4.6,3.1-10,5.4-16.1,7.1
		c-6.1,1.7-12.3,2.5-18.6,2.5C390.2,210.4,380.7,208.1,372.5,203.3z"/>
	<path class="st1" d="M483.8,203.3c-8.4-4.8-14.8-11.5-19.3-20.4c-4.5-8.8-6.8-19.1-6.8-30.7c0-11.8,2.3-22.1,6.8-30.9
		c4.5-8.8,11-15.6,19.3-20.4c8.4-4.8,18.1-7.1,29.1-7.1s20.7,2.4,29.1,7.1c8.4,4.8,14.8,11.5,19.3,20.4c4.5,8.8,6.8,19.1,6.8,30.9
		c0,11.7-2.3,21.9-6.8,30.7c-4.5,8.8-11,15.6-19.3,20.4c-8.4,4.8-18.1,7.1-29.1,7.1S492.1,208.1,483.8,203.3z M536.4,181.9
		c5.4-6.7,8.2-16.6,8.2-29.7c0-12.9-2.8-22.7-8.3-29.6c-5.5-6.8-13.3-10.2-23.5-10.2c-10.1,0-17.9,3.4-23.5,10.2
		c-5.5,6.8-8.3,16.7-8.3,29.6c0,13,2.7,22.9,8.2,29.7c5.4,6.7,13.3,10.1,23.6,10.1C523.1,192,531,188.7,536.4,181.9z"/>
	<path class="st1" d="M694.1,48.5c2.1,2,3.2,4.7,3.2,8.1v142.1c0,3.5-1,6.3-3.1,8.3c-2.1,2-4.9,3-8.4,3c-3.5,0-6.3-1-8.4-3
		c-2.1-2-3.1-4.8-3.1-8.3v-9.2c-3.4,6.7-8.3,11.9-14.7,15.5c-6.4,3.6-13.9,5.4-22.3,5.4c-9.7,0-18.3-2.5-25.9-7.4
		c-7.6-4.9-13.5-11.8-17.7-20.7c-4.2-8.9-6.3-19.1-6.3-30.6c0-11.7,2.1-21.9,6.3-30.6c4.2-8.7,10.1-15.5,17.6-20.2
		c7.5-4.8,16.2-7.1,26-7.1c8.4,0,15.8,1.8,22.2,5.4c6.4,3.6,11.2,8.7,14.6,15.3V56.1c0-3.2,1-5.8,3.1-7.7c2.1-1.9,4.9-2.9,8.4-2.9
		C689.1,45.5,692,46.5,694.1,48.5z M666,181.7c5.5-6.9,8.3-16.7,8.3-29.4c0-12.7-2.7-22.5-8.2-29.4c-5.4-6.9-13.2-10.4-23.3-10.4
		c-10.1,0-18,3.4-23.6,10.2c-5.6,6.8-8.4,16.5-8.4,29.1c0,12.6,2.8,22.4,8.5,29.6c5.7,7.1,13.5,10.7,23.5,10.7
		C652.8,192,660.5,188.6,666,181.7z"/>
	<path class="st1" d="M822.9,183.1c1.4,1.7,2.1,3.8,2.1,6.4c0,4.4-2.8,8.2-8.3,11.3c-5.4,3.1-11.2,5.4-17.6,7.1
		c-6.4,1.7-12.5,2.5-18.3,2.5c-17.8,0-31.8-5.2-42.1-15.5c-10.3-10.4-15.4-24.5-15.4-42.4c0-11.5,2.3-21.7,6.8-30.6
		c4.5-8.9,10.9-15.8,19.1-20.7c8.2-4.9,17.5-7.4,27.9-7.4c15,0,26.9,4.8,35.6,14.5c8.7,9.7,13.1,22.7,13.1,39.1
		c0,6.1-2.8,9.2-8.3,9.2h-71.1c1.5,23.8,13,35.6,34.3,35.6c5.7,0,10.6-0.8,14.7-2.3c4.1-1.5,8.5-3.5,13.1-6c0.5-0.3,1.7-1,3.8-2
		c2.1-1,3.8-1.5,5.2-1.5C819.8,180.5,821.5,181.4,822.9,183.1z M756.2,119.4c-5.4,5.7-8.6,13.6-9.7,23.9h59.3
		c-0.5-10.4-3.1-18.4-7.9-24c-4.8-5.6-11.6-8.4-20.4-8.4C768.7,110.9,761.6,113.7,756.2,119.4z"/>
	<path class="st2" d="M936.1,135.9v68.5c0,1.7-0.4,3-1.3,3.9c-0.8,0.9-2,1.4-3.6,1.4c-1.5,0-2.8-0.5-3.7-1.5c-0.9-1-1.4-2.3-1.4-3.8
		v-16.1c-3.4,7.1-8.2,12.5-14.6,16.3c-6.4,3.8-13.6,5.8-21.7,5.8c-7.1,0-13.5-1.5-19.3-4.4c-5.8-2.9-10.5-6.9-13.9-11.8
		c-3.4-5-5.3-10.5-5.4-16.7c-0.2-8.4,1.9-15,6.2-19.6c4.3-4.6,11.5-7.9,21.6-9.9c10.1-2,24.3-3,42.5-3h4.6v-9.7
		c0-10.9-2.2-18.8-6.6-23.8c-4.4-5-11.2-7.5-20.6-7.5c-7.4,0-13.9,1-19.7,2.9c-5.8,1.9-10.3,4.1-13.7,6.6c-0.6,0.5-1.9,1.3-3.8,2.6
		c-1.9,1.3-3.5,2-4.7,2c-1.1,0-2-0.4-2.9-1.3c-0.8-0.8-1.3-1.9-1.3-3.1c0-2.9,2.7-6,8-9.2c5.4-3.2,11.2-5.7,17.6-7.4
		c6.4-1.7,12.7-2.5,19-2.5C923.3,94.8,936.1,108.5,936.1,135.9z M908.5,195.8c5.5-3.3,9.9-7.9,13-13.7c3.1-5.8,4.7-12.4,4.7-19.8
		v-8.3h-4.4c-16.1,0-28.4,0.7-36.8,2c-8.4,1.3-14.3,3.5-17.7,6.7c-3.4,3.1-5.1,7.8-5.1,13.9c0,7.1,2.6,12.8,7.8,17.4
		c5.2,4.5,11.8,6.8,19.8,6.8C896.7,200.8,902.9,199.1,908.5,195.8z"/>
	<path class="st2" d="M1025.1,95.2c1.8,0,3.1,0.3,3.8,1s1,1.7,1,3.1c0,2.6-1.6,4.1-4.8,4.6l-6.9,0.7c-11.2,1.1-19.6,5.2-25.3,12.4
		c-5.7,7.2-8.5,15.5-8.5,24.8v62.8c0,1.7-0.4,3-1.3,3.9c-0.8,0.9-2,1.4-3.6,1.4c-1.5,0-2.7-0.5-3.6-1.4c-0.8-0.9-1.3-2.2-1.3-3.9
		V100.5c0-3.5,1.6-5.3,4.8-5.3c1.4,0,2.5,0.5,3.5,1.4c0.9,0.9,1.4,2.2,1.4,3.9v16.6c6.6-13.2,18.6-20.4,35.9-21.6l3.2-0.2H1025.1z"
		/>
	<path class="st2" d="M1107.9,205.6c0,3.4-2.2,4.8-6.7,4.4l-6-0.5c-11.5-0.8-19.9-4.3-25.3-10.5c-5.4-6.2-8.1-15.8-8.1-28.9v-64.4
		h-19.1c-1.1,0-2-0.4-2.8-1.1c-0.8-0.8-1.1-1.7-1.1-2.8c0-1.2,0.4-2.3,1.1-3.1c0.8-0.8,1.7-1.3,2.8-1.3h19.1V66.9
		c0-1.7,0.5-3,1.4-3.9c0.9-0.9,2.1-1.4,3.5-1.4s2.5,0.5,3.5,1.4c0.9,0.9,1.4,2.2,1.4,3.9v30.6h30.6c1.1,0,2,0.4,2.8,1.3
		c0.8,0.8,1.1,1.9,1.1,3.1c0,1.1-0.3,2-1,2.8c-0.7,0.8-1.6,1.1-2.9,1.1h-30.6v64.6c0,10.4,2,17.9,6.1,22.3c4.1,4.4,10.4,7.1,19,7.8
		l6.2,0.5C1106.2,201.3,1107.9,202.9,1107.9,205.6z"/>
	<path class="st2" d="M1146.3,207.8c-6-1.8-11.3-4.2-16.1-7.2c-3.1-2-5.1-3.6-6.2-4.9c-1.1-1.3-1.6-2.8-1.6-4.5c0-1.1,0.4-2,1.1-2.9
		c0.8-0.8,1.7-1.3,2.8-1.3c0.8,0,1.8,0.4,3.1,1.3c1.3,0.8,2.2,1.4,2.6,1.7c4.4,3.2,9.1,5.9,13.9,7.9c4.8,2.1,10.9,3.1,18.3,3.1
		c10,0,17.6-1.8,23-5.5c5.4-3.7,8.1-8.9,8.1-15.6c0-4-1-7.3-2.9-9.9c-1.9-2.6-5.1-4.9-9.4-6.8c-4.4-1.9-10.6-3.8-18.7-5.6
		c-13.5-3.1-23.2-7-29-11.7c-5.8-4.8-8.7-11-8.7-18.9c0-9.5,3.7-17.3,11.2-23.2c7.4-6,17.1-9,28.9-9c5.7,0,11.1,0.8,16.3,2.3
		c5.2,1.5,9.8,3.7,13.8,6.4c2.9,2.1,5,4,6.3,5.6c1.3,1.6,2,3.3,2,4.9c0,1.1-0.4,2-1.2,2.9c-0.8,0.8-1.7,1.3-2.8,1.3
		c-1.2,0-3.2-1.1-6-3.4c-4-3.1-8.2-5.6-12.5-7.6c-4.4-2-9.9-3-16.4-3c-8.6,0-15.5,2-20.8,6.1c-5.3,4.1-7.9,9.4-7.9,16
		c0,4,0.8,7.2,2.5,9.8c1.7,2.5,4.6,4.7,8.6,6.6c4.1,1.8,9.9,3.6,17.4,5.3c10.6,2.6,18.7,5.3,24.4,7.9c5.7,2.7,9.7,5.9,12.1,9.7
		c2.4,3.8,3.6,8.5,3.6,14.4c0,9.2-3.8,16.6-11.4,22.2c-7.6,5.6-17.7,8.4-30.2,8.4C1158.2,210.4,1152.3,209.6,1146.3,207.8z"/>
</g>
</svg>
